ModelForces
version=1
nRows=4
nColumns=206
inDegrees=no

This file contains the forces exerted on a model during a simulation.

A force is a generalized force, meaning that it can be either a force (N) or a torque (Nm).

Units are S.I. units (second, meters, Newtons, ...)
Angles are in degrees.

endheader
time	glut_med1_r	glut_med2_r	glut_med3_r	glut_min1_r	glut_min2_r	glut_min3_r	semimem_r	semiten_r	bifemlh_r	bifemsh_r	sar_r	add_long_r	add_brev_r	add_mag1_r	add_mag2_r	add_mag3_r	tfl_r	pect_r	grac_r	glut_max1_r	glut_max2_r	glut_max3_r	iliacus_r	psoas_r	quad_fem_r	gem_r	peri_r	rect_fem_r	vas_med_r	vas_int_r	vas_lat_r	med_gas_r	lat_gas_r	soleus_r	tib_post_r	flex_dig_r	flex_hal_r	tib_ant_r	per_brev_r	per_long_r	per_tert_r	ext_dig_r	ext_hal_r	glut_med1_l	glut_med2_l	glut_med3_l	glut_min1_l	glut_min2_l	glut_min3_l	semimem_l	semiten_l	bifemlh_l	bifemsh_l	sar_l	add_long_l	add_brev_l	add_mag1_l	add_mag2_l	add_mag3_l	tfl_l	pect_l	grac_l	glut_max1_l	glut_max2_l	glut_max3_l	iliacus_l	psoas_l	quad_fem_l	gem_l	peri_l	rect_fem_l	vas_med_l	vas_int_l	vas_lat_l	med_gas_l	lat_gas_l	soleus_l	tib_post_l	flex_dig_l	flex_hal_l	tib_ant_l	per_brev_l	per_long_l	per_tert_l	ext_dig_l	ext_hal_l	ercspn_r	ercspn_l	intobl_r	intobl_l	extobl_r	extobl_l	femur_lat_meniscii_l.femur_lat_l.force.X	femur_lat_meniscii_l.femur_lat_l.force.Y	femur_lat_meniscii_l.femur_lat_l.force.Z	femur_lat_meniscii_l.femur_lat_l.torque.X	femur_lat_meniscii_l.femur_lat_l.torque.Y	femur_lat_meniscii_l.femur_lat_l.torque.Z	femur_lat_meniscii_l.meniscus_lat_l.force.X	femur_lat_meniscii_l.meniscus_lat_l.force.Y	femur_lat_meniscii_l.meniscus_lat_l.force.Z	femur_lat_meniscii_l.meniscus_lat_l.torque.X	femur_lat_meniscii_l.meniscus_lat_l.torque.Y	femur_lat_meniscii_l.meniscus_lat_l.torque.Z	femur_med_meniscii_l.femur_med_l.force.X	femur_med_meniscii_l.femur_med_l.force.Y	femur_med_meniscii_l.femur_med_l.force.Z	femur_med_meniscii_l.femur_med_l.torque.X	femur_med_meniscii_l.femur_med_l.torque.Y	femur_med_meniscii_l.femur_med_l.torque.Z	femur_med_meniscii_l.meniscus_med_l.force.X	femur_med_meniscii_l.meniscus_med_l.force.Y	femur_med_meniscii_l.meniscus_med_l.force.Z	femur_med_meniscii_l.meniscus_med_l.torque.X	femur_med_meniscii_l.meniscus_med_l.torque.Y	femur_med_meniscii_l.meniscus_med_l.torque.Z	femur_lat_meniscii_r.femur_lat_r.force.X	femur_lat_meniscii_r.femur_lat_r.force.Y	femur_lat_meniscii_r.femur_lat_r.force.Z	femur_lat_meniscii_r.femur_lat_r.torque.X	femur_lat_meniscii_r.femur_lat_r.torque.Y	femur_lat_meniscii_r.femur_lat_r.torque.Z	femur_lat_meniscii_r.meniscus_lat_r.force.X	femur_lat_meniscii_r.meniscus_lat_r.force.Y	femur_lat_meniscii_r.meniscus_lat_r.force.Z	femur_lat_meniscii_r.meniscus_lat_r.torque.X	femur_lat_meniscii_r.meniscus_lat_r.torque.Y	femur_lat_meniscii_r.meniscus_lat_r.torque.Z	femur_med_meniscii_r.femur_med_r.force.X	femur_med_meniscii_r.femur_med_r.force.Y	femur_med_meniscii_r.femur_med_r.force.Z	femur_med_meniscii_r.femur_med_r.torque.X	femur_med_meniscii_r.femur_med_r.torque.Y	femur_med_meniscii_r.femur_med_r.torque.Z	femur_med_meniscii_r.meniscus_med_r.force.X	femur_med_meniscii_r.meniscus_med_r.force.Y	femur_med_meniscii_r.meniscus_med_r.force.Z	femur_med_meniscii_r.meniscus_med_r.torque.X	femur_med_meniscii_r.meniscus_med_r.torque.Y	femur_med_meniscii_r.meniscus_med_r.torque.Z	femur_med_tibia_l.tibia_upper_l.force.X	femur_med_tibia_l.tibia_upper_l.force.Y	femur_med_tibia_l.tibia_upper_l.force.Z	femur_med_tibia_l.tibia_upper_l.torque.X	femur_med_tibia_l.tibia_upper_l.torque.Y	femur_med_tibia_l.tibia_upper_l.torque.Z	femur_med_tibia_l.femur_med_l.force.X	femur_med_tibia_l.femur_med_l.force.Y	femur_med_tibia_l.femur_med_l.force.Z	femur_med_tibia_l.femur_med_l.torque.X	femur_med_tibia_l.femur_med_l.torque.Y	femur_med_tibia_l.femur_med_l.torque.Z	femur_lat_tibia_l.tibia_upper_l.force.X	femur_lat_tibia_l.tibia_upper_l.force.Y	femur_lat_tibia_l.tibia_upper_l.force.Z	femur_lat_tibia_l.tibia_upper_l.torque.X	femur_lat_tibia_l.tibia_upper_l.torque.Y	femur_lat_tibia_l.tibia_upper_l.torque.Z	femur_lat_tibia_l.femur_lat_l.force.X	femur_lat_tibia_l.femur_lat_l.force.Y	femur_lat_tibia_l.femur_lat_l.force.Z	femur_lat_tibia_l.femur_lat_l.torque.X	femur_lat_tibia_l.femur_lat_l.torque.Y	femur_lat_tibia_l.femur_lat_l.torque.Z	femur_med_tibia_r.tibia_upper_r.force.X	femur_med_tibia_r.tibia_upper_r.force.Y	femur_med_tibia_r.tibia_upper_r.force.Z	femur_med_tibia_r.tibia_upper_r.torque.X	femur_med_tibia_r.tibia_upper_r.torque.Y	femur_med_tibia_r.tibia_upper_r.torque.Z	femur_med_tibia_r.femur_med_r.force.X	femur_med_tibia_r.femur_med_r.force.Y	femur_med_tibia_r.femur_med_r.force.Z	femur_med_tibia_r.femur_med_r.torque.X	femur_med_tibia_r.femur_med_r.torque.Y	femur_med_tibia_r.femur_med_r.torque.Z	femur_lat_tibia_r.tibia_upper_r.force.X	femur_lat_tibia_r.tibia_upper_r.force.Y	femur_lat_tibia_r.tibia_upper_r.force.Z	femur_lat_tibia_r.tibia_upper_r.torque.X	femur_lat_tibia_r.tibia_upper_r.torque.Y	femur_lat_tibia_r.tibia_upper_r.torque.Z	femur_lat_tibia_r.femur_lat_r.force.X	femur_lat_tibia_r.femur_lat_r.force.Y	femur_lat_tibia_r.femur_lat_r.force.Z	femur_lat_tibia_r.femur_lat_r.torque.X	femur_lat_tibia_r.femur_lat_r.torque.Y	femur_lat_tibia_r.femur_lat_r.torque.Z	aACL_R	pACL_R	aPCL_R	pPCL_R	aMCL_R	mMCL_R	pMCL_R	aLCL_R	mLCL_R	pLCL_R	aPCL_L	pPCL_L	aMCL_L	aLCL_L	ground_prescribedForce_0_fx	ground_prescribedForce_0_fy	ground_prescribedForce_0_fz
      0.23508455	      9.09847200	      6.72897593	      7.21825653	      3.13493170	      3.69520125	      3.84702884	     12.21871469	      5.22359891	     11.08445961	      9.15341147	      1.83539989	      6.68016836	      4.87501889	      3.46265398	      2.92274815	      4.83529487	      4.89286981	      2.64233281	      1.90243798	      4.34230784	      6.60216766	      4.94366778	     24.58173833	     15.15306779	      4.29137543	      3.16878158	      5.25095185	     14.83484737	      9.48313314	      9.75394637	     12.53007524	      4.53717494	      2.16724788	      8.24394299	      9.42884756	      3.12008976	      2.25664207	     15.80824789	      4.50388626	      8.41642169	      4.54771911	      6.25319143	      2.66656999	      9.09847200	      6.72897593	      7.21825653	      3.13493170	      3.69520125	      3.84702884	     10.96192658	      4.91354142	      9.54279770	      8.53962305	      1.79044474	      6.68016836	      4.87501889	      3.46265398	      2.92274815	      4.83529487	      4.62219576	      2.64233281	      1.84162181	      4.34230784	      6.60216766	      4.94366778	     24.58173833	     15.15306779	      4.29137543	      3.16878158	      5.25095185	     13.20465836	      7.86307322	      9.04978652	      9.72359755	     18.53722435	      8.61011668	     39.91636903	     45.93562817	      3.68053304	      3.78102593	     10.37134110	      5.45686230	     14.95271382	      2.34422572	      6.74689809	      2.12190020	     29.49430596	     29.49430596	     10.77078531	     10.77078531	     28.39645883	     28.39645883	      2.76307435	     50.99597937	     -9.56042239	      5.21997485	     -0.02578839	      1.48581788	     -2.76307435	    -50.99597937	      9.56042239	     -1.74637766	      0.02558040	     -0.48301696	     -3.31599387	     20.97615968	     -3.40468921	      0.94473225	     -0.02138609	     -1.00501789	      3.31599387	    -20.97615968	      3.40468921	      0.28075727	      0.00368718	     -0.29758878	     32.57995253	     51.86336771	      3.69018787	     -2.86360011	      0.83257005	     13.58069081	    -32.57995253	    -51.86336771	     -3.69018787	      1.71896271	     -1.00789856	     -1.01077285	     71.96174366	     93.11941327	     -2.40404898	      2.87961870	     -1.44451869	     30.20144191	    -71.96174366	    -93.11941327	      2.40404898	     -1.45315467	      1.05885916	     -2.44058949	      0.00000000	      0.00000000	      0.00000000	      0.00000000	      0.00000000	      0.00000000	      0.00000000	      0.00000000	      0.00000000	      0.00000000	      0.00000000	      0.00000000	      0.00000000	      0.00000000	      0.00000000	      0.00000000	      0.00000000	      0.00000000	      0.00000000	      0.00000000	      0.00000000	      0.00000000	      0.00000000	      0.00000000	      0.00000000	      0.00000000	      0.00000000	      0.00000000	      0.00000000	      0.00000000	      0.00000000	      0.00000000	      0.00000000	      0.00000000	      0.00000000	      0.00000000	      0.00000000	      0.00000000	      0.00000000	      0.00000000	      0.00000000	      0.00000000	      0.00000000	      0.00000000	      0.00000000	      0.00000000	      0.00000000	      0.00000000	      0.00000000	      0.00000000	      0.00000000	      0.00000000	     15.22194061	     13.53728039	     18.06943873	      0.00000000	      0.00000000	      0.00000000	      0.00000000	      0.00000000	      0.00000001	      0.00000000	    110.00000000	      0.00000000	      0.00000000
      0.23572209	      9.08558999	      6.72017661	      7.20869993	      3.13100551	      3.69093217	      3.84159456	     12.20140992	      5.21564799	     11.07023172	      9.13553421	      1.83258189	      6.67132959	      4.86896848	      3.45815367	      2.91885830	      4.82824593	      4.88866223	      2.63900132	      1.89886737	      4.33662223	      6.59349917	      4.93706334	     24.56567735	     15.13483802	      4.28588285	      3.16615673	      5.24173414	     14.81397597	      9.46834145	      9.73762178	     12.51229195	      4.52996914	      2.16413971	      8.23308947	      9.38142705	      3.12381007	      2.23970363	     15.78382206	      4.51379237	      8.42653988	      6.32789740	      6.23688592	      2.67292403	      9.08558999	      6.72017661	      7.20869993	      3.13100551	      3.69093217	      3.84159456	     10.94380713	      4.90664556	      9.52749585	      8.52868384	      1.78821266	      6.67132959	      4.86896848	      3.45815367	      2.91885830	      4.82824593	      4.61782745	      2.63900132	      1.83928571	      4.33662223	      6.59349917	      4.93706334	     24.56567735	     15.13483802	      4.28588285	      3.16615673	      5.24173414	     13.18374075	      7.85251948	      9.03741598	      9.71034904	     18.50269271	      8.59405700	     39.84614356	     45.90648285	      3.67311088	      3.77411307	     10.35544477	      5.44772483	     14.93299274	      2.34140992	      6.73443016	      2.11804572	     29.45728341	     29.45728341	     10.75609485	     10.75609485	     28.38323550	     28.38323550	      2.76307435	     50.99597937	     -9.56042239	      5.21997485	     -0.02578839	      1.48581788	     -2.76307435	    -50.99597937	      9.56042239	     -1.74637766	      0.02558040	     -0.48301696	     -3.31599387	     20.97615968	     -3.40468921	      0.94473225	     -0.02138609	     -1.00501789	      3.31599387	    -20.97615968	      3.40468921	      0.28075727	      0.00368718	     -0.29758878	     32.74731968	     52.02411363	      3.67524950	     -2.86098089	      0.83641245	     13.65132286	    -32.74731968	    -52.02411363	     -3.67524950	      1.72290005	     -1.01262563	     -1.01641709	     72.34116603	     93.46485214	     -2.43165773	      2.89773587	     -1.45184820	     30.36121393	    -72.34116603	    -93.46485214	      2.43165773	     -1.45885926	      1.06424525	     -2.45319115	      0.00000000	      0.00000000	      0.00000000	      0.00000000	      0.00000000	      0.00000000	      0.00000000	      0.00000000	      0.00000000	      0.00000000	      0.00000000	      0.00000000	      0.00000000	      0.00000000	      0.00000000	      0.00000000	      0.00000000	      0.00000000	      0.00000000	      0.00000000	      0.00000000	      0.00000000	      0.00000000	      0.00000000	      0.00000000	      0.00000000	      0.00000000	      0.00000000	      0.00000000	      0.00000000	      0.00000000	      0.00000000	      0.00000000	      0.00000000	      0.00000000	      0.00000000	      0.00000000	      0.00000000	      0.00000000	      0.00000000	      0.00000000	      0.00000000	      0.00000000	      0.00000000	      0.00000000	      0.00000000	      0.00000000	      0.00000000	      0.00000000	      0.00000000	      0.00000000	      0.00000000	     15.28095087	     13.58985897	     18.12328023	      0.00000000	      0.00000000	      0.00000000	      0.00000000	      0.00000000	      0.00000001	      0.00000000	    110.00000000	      0.00000000	      0.00000000
      0.23807742	      9.03892893	      6.68830011	      7.17408134	      3.11678121	      3.67546656	      3.82191043	     12.14541425	      5.19039458	     11.02576478	      9.10166918	      1.82517784	      6.63931133	      4.84705144	      3.44185090	      2.90476794	      4.80271368	      4.87575785	      2.62693160	      1.88935003	      4.31602636	      6.56209804	      4.91313991	     24.50750213	     15.06881501	      4.26598436	      3.15665074	      5.20830724	     14.74683690	      9.42961213	      9.69535896	     12.46446321	      4.51454821	      2.15828808	      8.20511175	      9.20880535	      3.13113635	      2.17357397	     15.68951413	      4.55209557	      8.46758373	      7.88102642	      6.20038258	      2.69746547	      9.03892893	      6.68830011	      7.17408134	      3.11678121	      3.67546656	      3.82191043	     10.87814052	      4.88166725	      9.47205102	      8.48905354	      1.78012623	      6.63931133	      4.84705144	      3.44185090	      2.90476794	      4.80271368	      4.60200486	      2.62693160	      1.83082230	      4.31602636	      6.56209804	      4.91313991	     24.50750213	     15.06881501	      4.26598436	      3.15665074	      5.20830724	     13.10795236	      7.81429267	      8.99260999	      9.66236432	     18.37735477	      8.53576689	     39.59148889	     45.80086803	      3.64621234	      3.74906892	     10.29785774	      5.41460714	     14.86147727	      2.33121132	      6.68919972	      2.10406806	     29.32315286	     29.32315286	     10.70288134	     10.70288134	     28.33533961	     28.33533961	      2.76307435	     50.99597937	     -9.56042239	      5.21997485	     -0.02578839	      1.48581788	     -2.76307435	    -50.99597937	      9.56042239	     -1.74637766	      0.02558040	     -0.48301696	     -3.31599387	     20.97615968	     -3.40468921	      0.94473225	     -0.02138609	     -1.00501789	      3.31599387	    -20.97615968	      3.40468921	      0.28075727	      0.00368718	     -0.29758878	     33.10965305	     51.85747522	      3.74324511	     -2.88415726	      0.84488160	     13.80682210	    -33.10965305	    -51.85747522	     -3.74324511	      1.71869716	     -1.02299290	     -1.03063993	     72.93099684	     94.20821280	     -2.46325315	      2.92437420	     -1.46258732	     30.60950510	    -72.93099684	    -94.20821280	      2.46325315	     -1.46968777	      1.07218461	     -2.47086678	      0.00000000	      0.00000000	      0.00000000	      0.00000000	      0.00000000	      0.00000000	      0.00000000	      0.00000000	      0.00000000	      0.00000000	      0.00000000	      0.00000000	      0.00000000	      0.00000000	      0.00000000	      0.00000000	      0.00000000	      0.00000000	      0.00000000	      0.00000000	      0.00000000	      0.00000000	      0.00000000	      0.00000000	      0.00000000	      0.00000000	      0.00000000	      0.00000000	      0.00000000	      0.00000000	      0.00000000	      0.00000000	      0.00000000	      0.00000000	      0.00000000	      0.00000000	      0.00000000	      0.00000000	      0.00000000	      0.00000000	      0.00000000	      0.00000000	      0.00000000	      0.00000000	      0.00000000	      0.00000000	      0.00000000	      0.00000000	      0.00000000	      0.00000000	      0.00000000	      0.00000000	     15.64115151	     13.93086033	     18.47949976	      0.00000000	      0.00000000	      0.00000000	      0.00000000	      0.00000000	      0.00000001	      0.00000000	    110.00000000	      0.00000000	      0.00000000
      0.24168611	      8.97019531	      6.64133389	      7.12307848	      3.09581945	      3.65267871	      3.79291437	     12.06694779	      5.15469271	     10.97591371	      9.09263028	      1.81233777	      6.59213952	      4.81475733	      3.41783095	      2.88401050	      4.76510457	      4.86217148	      2.60914534	      1.87688928	      4.28568332	      6.51583626	      4.87789690	     24.42180916	     14.97158525	      4.23666331	      3.14265295	      5.15895494	     14.65968108	      9.36911944	      9.64525969	     12.40745335	      4.52049106	      2.16682536	      8.21699140	      8.99660737	      3.13032628	      2.06907252	     15.55418624	      4.58601838	      8.51267217	      8.62173944	      6.21185209	      2.73614203	      8.97019531	      6.64133389	      7.12307848	      3.09581945	      3.65267871	      3.79291437	     10.78131087	      4.84487255	      9.39032466	      8.43065784	      1.76820987	      6.59213952	      4.81475733	      3.41783095	      2.88401050	      4.76510457	      4.57869824	      2.60914534	      1.81835063	      4.28568332	      6.51583626	      4.87789690	     24.42180916	     14.97158525	      4.23666331	      3.14265295	      5.15895494	     12.99625271	      7.75798510	      8.92661575	      9.59169177	     18.19196637	      8.44955225	     39.21553834	     45.64515992	      3.60654116	      3.71215865	     10.21300808	      5.36576504	     14.75588973	      2.31619049	      6.62237730	      2.08343407	     29.12549039	     29.12549039	     10.62448997	     10.62448997	     28.26479096	     28.26479096	      2.76307435	     50.99597937	     -9.56042239	      5.21997485	     -0.02578839	      1.48581788	     -2.76307435	    -50.99597937	      9.56042239	     -1.74637766	      0.02558040	     -0.48301696	     -3.31599387	     20.97615968	     -3.40468921	      0.94473225	     -0.02138609	     -1.00501789	      3.31599387	    -20.97615968	      3.40468921	      0.28075727	      0.00368718	     -0.29758878	     32.52591206	     50.69473948	      3.73185747	     -2.84953400	      0.82920973	     13.56661039	    -32.52591206	    -50.69473948	     -3.73185747	      1.68170500	     -1.00402056	     -1.01342645	     71.84531846	     93.65462104	     -2.45589961	      2.90795645	     -1.43966105	     30.15284230	    -71.84531846	    -93.65462104	      2.45589961	     -1.45984288	      1.05578454	     -2.42843045	      0.00000000	      0.00000000	      0.00000000	      0.00000000	      0.00000000	      0.00000000	      0.00000000	      0.00000000	      0.00000000	      0.00000000	      0.00000000	      0.00000000	      0.00000000	      0.00000000	      0.00000000	      0.00000000	      0.00000000	      0.00000000	      0.00000000	      0.00000000	      0.00000000	      0.00000000	      0.00000000	      0.00000000	      0.00000000	      0.00000000	      0.00000000	      0.00000000	      0.00000000	      0.00000000	      0.00000000	      0.00000000	      0.00000000	      0.00000000	      0.00000000	      0.00000000	      0.00000000	      0.00000000	      0.00000000	      0.00000000	      0.00000000	      0.00000000	      0.00000000	      0.00000000	      0.00000000	      0.00000000	      0.00000000	      0.00000000	      0.00000000	      0.00000000	      0.00000000	      0.00000000	     15.70160356	     13.96311097	     18.53901173	      0.00000000	      0.00000000	      0.00000000	      0.00000000	      0.00000000	      0.00000001	      0.00000000	    110.00000000	      0.00000000	      0.00000000
